<svg id="SvgjsSvg1130" width="288" height="288" xmlns="http://www.w3.org/2000/svg" version="1.1" xmlns:xlink="http://www.w3.org/1999/xlink" xmlns:svgjs="http://svgjs.com/svgjs"><defs id="SvgjsDefs1131"></defs><g id="SvgjsG1132"><svg xmlns="http://www.w3.org/2000/svg" enable-background="new 0 0 52 52" viewBox="0 0 52 52" width="288" height="288"><circle cx="26" cy="26" r="24" fill="none" stroke="#ffffff" stroke-linecap="round" stroke-linejoin="round" stroke-width="2" class="colorStroke000 svgStroke"></circle><path fill="none" stroke="#ffffff" stroke-linecap="round" stroke-linejoin="round" stroke-width="2" d="M44.6 10.8c-.2.1-.4.1-.6.1-1.1.3-2.2.1-3.2-.4-.3-.2-.6-.4-.9-.3-.2.1-.3.2-.4.4-1.2 1.5-3.2 1.9-4.9 1-.3-.2-.7-.4-1-.3s-.5.4-.7.7c-.7 1.1-1.2 2.3-1.4 3.5-.2 1.3.2 2.6 1.1 3.5.3.2.5.4.7.6.2.3.4.6.5.9.9 1.7 3 2.3 4.7 1.4.2-.1.4-.3.6-.4.2-.3.6-.6.9-.7.7-.2 1.2.4 1.7 1 .6.6 1 1.4 1 2.3-.1.8-.6 1.6-.2 2.2.2.2.4.4.7.6 1.1.8.9 2.5.9 3.8 0 1 .2 2 .5 3 .4 1.3 1.3 2.4 2.5 3 .1.1.2.1.4.1M27.5 2c.1.8-.2 1.6-.9 2-.7.5-1.6.7-2.4.7-.7-.1-1.4-.1-2.1.1-1.1.5-1.2 2.3-2.4 2.9C19.4 7.8 19 7.8 18.7 8c-1.1.5-1 2.1-1.9 3C16 11.7 15 11.9 14 11.7c-1-.2-2-.3-3-.1-1 .3-1.8 1.4-1.4 2.3s1.6 1 2.5.9 2-.2 2.7.4.6 2.3 1.5 3c.8.5 1.7.5 2.5 0 .8-.5 1.6-.7 2.5-.8 2.3.1 3.2 3.2 5.4 3.9.9.3 1.9.1 2.7.4 1.6.6 2.2 2.8 1.5 4.4-.3.6-.6 1.2-.8 1.8-.2.8.1 1.6-.1 2.4-.4 1.5-2.5 2.2-2.5 3.8.1.4.1.9 0 1.3-.2.3-.5.6-.8.8-1.7 1.1-3 2.7-3.8 4.6-.1.3-.2.5-.2.8.1.4.2.7.5 1 .4.5.7 1.1.7 1.8 0 .7-.5 1.3-1.2 1.3-.4-.1-.8-.4-1-.7-.5-.5-1-1.1-1.3-1.8-.2-.8-.1-1.8-.5-2.5-.4-.4-.7-.9-1.1-1.3-1.3-1.7.3-4.3-.5-6.2-.7-1.6-2.8-2.4-3.1-4.1 0-.7 0-1.3.2-1.9 0-1.8-.4-3.6-1.3-5.1-.2-.5-.5-.9-.8-1.2-.6-.4-1.5-.3-2.1-.7-.5-.4-.9-.9-1.2-1.5-.4-.8-1-1.4-1.8-1.8-.8-.4-1.7-.3-2.4.1-.4.3-.6.7-1 .9-.4.3-1 .4-1.5.4" class="colorStroke000 svgStroke"></path></svg></g></svg>